<svg width="153" height="24" xmlns="http://www.w3.org/2000/svg"><path d="M20.164 2.4C19.4 1.2 17.873.11 15.254.11H7.837c-.872 0-1.636.326-2.29.872-.655.545-1.091 1.309-1.31 2.182L.2 16.8c-.327.655-.218 1.31.218 1.855.11.109.546.545 1.964.545h7.745c2.182 0 4.364-.764 6-2.29 2.182-2.074 3.273-5.346 3.818-7.42.764-2.29 1.419-5.017.219-7.09zm-3.819 6.764c-.981 3.272-1.854 4.69-2.509 5.345-1.2 1.31-2.836 1.964-4.581 1.746H5.109c-.327 0-.654 0-.873-.328-.218-.327 0-.654 0-.982L7.4 4.036c.11-.327.327-.763.655-.981.327-.11.545-.219.872-.219h3.71c1.308 0 2.945.219 3.708 1.419.764 1.2.546 3.272 0 4.909zM32.382 4.8H24.2l-.764 2.4h7.2c.546-.11 1.091.218 1.419.655.218.436.218.872 0 1.418l-.328.982H25.4c-.982 0-2.073.218-2.836.872-1.2.873-1.964 2.073-2.291 3.491-.328 1.091-.764 2.946.109 3.927.654.546 1.527.873 2.4.655h6.873c.763.11 1.527-.11 2.181-.545.546-.437.873-1.091 1.091-1.855l2.182-7.418C35.545 8.29 35.545 7.09 35 6c-.655-.873-1.636-1.31-2.618-1.2zm-2.4 11.236c0 .219-.218.437-.437.546-.218.109-.545.218-.763.218h-4.473c-.327 0-.654-.11-.873-.436a2.127 2.127 0 0 1 0-1.637c.11-.545.437-1.09.764-1.527a2.013 2.013 0 0 1 1.31-.545h5.345l-.873 3.381zm10.254.11c-.654-.764-.218-2.073.11-3.055l1.745-5.782h4.036l.764-2.4h-4.255l1.31-4.582h-3.164l-1.31 4.582H37.51l-.764 2.4h1.964l-2.182 7.2c-.545 1.855-.327 2.836.328 3.6.654.764 1.636 1.091 3.6 1.091h1.963l.764-2.4h-.764c-.763 0-1.636-.218-2.182-.655zM56.71 4.8h-8.182l-.763 2.4h7.09c.546-.11 1.091.218 1.419.655.218.436.218.872 0 1.418l-.328.982h-6.218c-.982 0-2.072.218-2.836.872-1.2.873-1.964 2.073-2.291 3.491-.327 1.091-.764 2.946.11 3.927.654.546 1.526.873 2.4.655h6.872c.763.11 1.527-.11 2.182-.545.545-.437.872-1.091 1.09-1.855l2.182-7.418c.437-1.091.437-2.291-.109-3.382-.654-.873-1.636-1.31-2.618-1.2zm-2.4 11.236c0 .219-.218.437-.436.546-.218.109-.546.218-.764.218h-4.473c-.327 0-.654-.11-.872-.436a2.127 2.127 0 0 1 0-1.637c.109-.545.436-1.09.763-1.527a2.013 2.013 0 0 1 1.31-.545h5.236l-.764 3.381zm96.982-9.818c-1.091-.327-2.291.327-2.618 1.418-.11.328-.11.546 0 .873l-6.11 4.473h-.108c-.437-.11-.873-.11-1.31.109l-5.345-3.6c0-1.2-.873-2.182-2.073-2.182-.982 0-1.854.655-2.182 1.527-.109.219-.109.546-.109.764l-4.909 3.818c-.109 0-.218-.109-.327-.109-1.09-.327-2.29.327-2.618 1.418-.327 1.091.327 2.291 1.418 2.618 1.09.328 2.29-.327 2.618-1.418 0-.218.11-.436.11-.654l5.017-3.818.219.109c.436.109.981.109 1.418-.11l5.345 3.491c-.218 1.2.655 2.182 1.746 2.4 1.09.11 2.182-.545 2.4-1.636.109-.327.109-.545.109-.873l6.109-4.472h.109a2.246 2.246 0 0 0 2.727-1.31 2.246 2.246 0 0 0-1.309-2.727c-.218-.109-.327-.218-.327-.109zM116.055 19.2l.763-2.4h-6.982c-1.2 0-2.509-.218-2.4-1.745l.328-1.964h8.4c.654 0 1.2-.218 1.745-.546.655-.545 1.091-1.309 1.31-2.181.545-1.855.763-3.6-.655-4.691-1.091-.873-2.837-.982-4.473-.982-1.964-.11-4.036.327-5.782 1.309-1.964 1.31-2.727 3.382-3.49 6-.546 1.855-1.092 3.927-.546 5.236.654 1.637 2.4 1.855 3.818 1.855l7.964.109zm-7.637-8.618c.218-.982.655-1.855 1.418-2.51.982-.763 2.073-1.09 3.273-.981.873-.11 1.746.109 2.51.654.436.546.654 1.31.326 1.964-.109.436-.436.873-.981.873h-6.546zM58.673 19.2h3.163L65.11 7.964c0-.219.218-.437.327-.546.219-.109.328-.218.546-.109h3.273c1.2 0 1.745.327 2.072.873.218.873.218 1.745-.109 2.509L68.71 19.2h3.164l2.836-9.49c.546-1.965.218-3.055-.327-3.71-.873-1.09-2.182-1.2-3.71-1.2h-5.127c-.872-.11-1.745.11-2.4.655-.436.436-.763.981-.872 1.527l-3.6 12.218zM92.6 4.8h-3.273l-8.182 11.018L79.836 4.8h-3.272l2.181 14.29-3.6 4.692h3.273zm9.927 11.89h-8.182c-.109 0-.218 0-.218-.108l.328-.327 9.709-7.637c.654-.436 1.2-1.2 1.418-1.963.327-1.091-.218-1.855-1.31-1.855H94.128l-.763 2.4h7.854c.218 0 .218.11.218.218 0 .11-.109.11-.327.327l-9.6 7.528c-.764.436-1.309 1.2-1.527 2.072-.546 1.855.982 1.964 1.418 1.964h10.364l.763-2.618z" fill="#AEB5BD"/></svg>