<svg width="121" height="36" xmlns="http://www.w3.org/2000/svg"><g fill="#AEB5BD"><path d="M0 7.114h4.2v9.343h8.743V7.114h4.2v22.8h-4.2V20.4H4.2v9.514H0zm30.429 15.343A3.439 3.439 0 0 1 27 25.886a3.439 3.439 0 0 1-3.429-3.429v-9.771H19.63v9.857c.171 4.114 3.685 7.286 7.8 7.114 3.857-.171 6.857-3.257 7.114-7.114v-9.857H30.6v9.771m14.914-9.686a5.961 5.961 0 0 0-4.628 1.886V7.114h-4.029v13.972c0 5.228 3.772 8.828 8.057 8.828 4.8.086 8.743-3.771 8.829-8.571.086-4.629-3.6-8.486-8.229-8.572zM45.6 26.23c-2.743-.086-4.8-2.4-4.714-5.058.085-2.571 2.143-4.542 4.714-4.714 2.314 0 4.371 2.229 4.371 4.886S47.914 26.23 45.6 26.23zM60.429 13.8c0-1.971 1.371-2.657 2.828-2.657 1.457.171 2.743.857 3.772 1.971L69.6 10.03c-1.543-1.8-3.771-2.915-6.086-2.915-4.285 0-7.457 2.572-7.457 6.686 0 7.714 9.514 5.229 9.514 9.6-.085 1.457-1.285 2.571-2.828 2.571-2.314 0-3.086-1.114-4.2-2.314l-2.829 2.829c1.629 2.143 4.2 3.428 6.857 3.343 4.115 0 7.372-2.572 7.372-6.515 0-8.485-9.429-5.828-9.514-9.514M80.4 12.514c-4.2 0-8.057 3.6-8.057 8.829V35.4h3.943v-7.629a5.961 5.961 0 0 0 4.628 1.886c4.629-.086 8.315-3.943 8.229-8.571.086-4.8-3.857-8.657-8.743-8.572zm.771 13.457c-2.742-.085-4.8-2.4-4.714-5.057.086-2.571 2.143-4.543 4.714-4.714 2.315 0 4.372 2.229 4.372 4.886S83.4 25.97 81.17 25.97zm37.458.258c-2.315 0-3-1.029-3-2.572V16.8h3.685v-3.514h-3.685V8.743l-4.029 1.8V24.6c0 3.6 2.486 5.4 5.914 5.4.515 0 1.029 0 1.629-.171l1.028-3.6c-.6-.086-1.114 0-1.542 0"/><path d="M108.086 16.971a9.356 9.356 0 0 0-3.172-3.171c-1.028-.6-2.057-.943-3.257-1.114V8.57c1.2-.514 1.886-1.628 1.886-2.914a3.172 3.172 0 0 0-3.343-3 3.159 3.159 0 0 0-3 3c0 1.286.686 2.4 1.886 2.914v4.2c-.943.172-1.886.429-2.829.858L85.03 5.057c.085-.343.171-.6.171-.943 0-1.971-1.543-3.514-3.514-3.6-1.972-.085-3.515 1.543-3.6 3.515C78 6 79.629 7.543 81.6 7.629a3.67 3.67 0 0 0 1.886-.515l.771.515 10.114 7.285a13.988 13.988 0 0 0-1.457 1.715 7.555 7.555 0 0 0-1.285 4.2v.342a8.82 8.82 0 0 0 .514 3c.343.858.771 1.543 1.286 2.229l-3.343 3.343c-1.372-.514-2.915.257-3.343 1.628-.514 1.372.257 2.915 1.628 3.343 1.372.515 2.915-.257 3.343-1.628a2.643 2.643 0 0 0 0-1.629l3.429-3.428c.514.342 1.028.6 1.543.857 1.114.514 2.4.771 3.6.771h.257c3 0 5.828-1.543 7.457-4.114a7.625 7.625 0 0 0 1.286-4.286v-.086c0-1.457-.429-2.914-1.2-4.2zm-4.2 7.286c-.772 1.029-1.972 1.629-3.257 1.714h-.172c-.686 0-1.457-.171-2.057-.514a4.682 4.682 0 0 1-1.8-1.628c-.514-.686-.771-1.458-.771-2.229v-.257a5 5 0 0 1 .514-2.229 4.95 4.95 0 0 1 1.714-1.8c.686-.428 1.457-.685 2.314-.685h.086c.772 0 1.457.171 2.143.514a4.233 4.233 0 0 1 1.714 1.543c.429.685.686 1.371.772 2.143v.514c0 1.028-.429 2.143-1.2 2.914z"/></g></svg>