<svg width="50" height="50" xmlns="http://www.w3.org/2000/svg"><path d="M25 0c13.806 0 25 11.193 25 25 0 13.806-11.194 25-25 25C11.192 50 0 38.806 0 25S11.193 0 25 0zm14.453 36.061V16.338a3.864 3.864 0 0 0-3.86-3.859H14.406a3.864 3.864 0 0 0-3.86 3.86V36.06a3.864 3.864 0 0 0 3.86 3.86h21.187a3.864 3.864 0 0 0 3.86-3.86zm-26.313 0V21.82h23.72v14.24c0 .698-.569 1.266-1.267 1.266H14.406a1.267 1.267 0 0 1-1.266-1.266zm23.719-19.723v2.887H13.14v-2.887c0-.698.568-1.265 1.266-1.265h21.187c.698 0 1.266.568 1.266 1.265zm-19.856 1.876v-1.73H15.38v1.73h1.623zm2.945 0v-1.73h-1.623v1.73h1.623zm2.944 0v-1.73H21.27v1.73h1.622z" fill="#D7DBED"/></svg>