<svg width="50" height="50" xmlns="http://www.w3.org/2000/svg"><path d="M25 0c13.806 0 25 11.193 25 25 0 13.806-11.194 25-25 25C11.192 50 0 38.806 0 25S11.193 0 25 0zm15.417 31.328V15.334a3.458 3.458 0 0 0-3.458-3.458H13.04a3.458 3.458 0 0 0-3.458 3.458v15.994a3.458 3.458 0 0 0 3.458 3.458h7.858v1.932H16.93a1.297 1.297 0 1 0 0 2.593h16.137a1.297 1.297 0 1 0 0-2.593h-3.966v-1.932h7.857a3.458 3.458 0 0 0 3.458-3.458zM36.96 14.902c.239 0 .432.194.432.432v15.994a.432.432 0 0 1-.432.433H13.04a.432.432 0 0 1-.432-.433V15.335c0-.239.193-.433.432-.433h23.92z" fill="#D7DBEE"/></svg>