<svg width="135" height="32" xmlns="http://www.w3.org/2000/svg"><g fill="none" fill-rule="evenodd"><path d="M50.245 17.44v5.2H48.08V9.4h5.172c3.087 0 4.73 1.56 4.73 4.04s-1.643 4.04-4.73 4.04h-3.007v-.04zm0-6.04v4h2.967c1.724 0 2.526-.64 2.526-2 0-1.36-.802-2-2.526-2h-2.967zm17.561 11.24H65.8v-1.08c-.642.8-1.564 1.32-2.847 1.32-2.525 0-4.53-2-4.53-4.76s2.005-4.76 4.53-4.76c1.283 0 2.246.52 2.847 1.32V13.6h2.005v9.04zm-7.377-4.52c0 1.6 1.042 2.92 2.726 2.92 1.644 0 2.726-1.24 2.726-2.92 0-1.64-1.082-2.92-2.726-2.92-1.684 0-2.726 1.32-2.726 2.92zm18.001-1.16v5.72h-2.005V17.6c0-1.52-.801-2.36-2.125-2.36-1.282 0-2.365.84-2.365 2.4v5.04H69.93V13.6h1.965v1.12c.722-1.08 1.844-1.36 2.806-1.36 2.205 0 3.729 1.48 3.729 3.6zm8.66-2.28V9h2.004v13.64H87.09v-1.08c-.642.8-1.564 1.32-2.847 1.32-2.525 0-4.53-2-4.53-4.76s2.005-4.76 4.53-4.76c1.283 0 2.245.52 2.847 1.32zm-5.372 3.44c0 1.6 1.042 2.92 2.726 2.92 1.644 0 2.726-1.24 2.726-2.92 0-1.64-1.082-2.92-2.726-2.92-1.684 0-2.726 1.32-2.726 2.92zM100 22.64h-2.005v-1.08c-.642.8-1.564 1.32-2.847 1.32-2.525 0-4.53-2-4.53-4.76s2.005-4.76 4.53-4.76c1.283 0 2.246.52 2.847 1.32V13.6H100v9.04zm-7.377-4.52c0 1.6 1.042 2.92 2.726 2.92 1.644 0 2.726-1.24 2.726-2.92 0-1.64-1.082-2.92-2.726-2.92-1.684 0-2.726 1.32-2.726 2.92zm14.914-8.72c4.17 0 6.896 2.64 6.896 6.64 0 4-2.727 6.64-6.896 6.64h-5.292V9.4h5.292zm-3.127 2.04v9.2h3.127c3.127 0 4.65-1.92 4.65-4.6 0-2.72-1.523-4.6-4.65-4.6h-3.127zm20.848 6.68c0 2.72-2.085 4.76-4.892 4.76-2.806 0-4.89-2.04-4.89-4.76 0-2.72 2.084-4.76 4.89-4.76 2.807 0 4.892 2.04 4.892 4.76zm-7.738 0c0 1.72 1.243 2.92 2.846 2.92 1.644 0 2.847-1.2 2.847-2.92s-1.243-2.92-2.847-2.92c-1.603 0-2.846 1.2-2.846 2.92zm17.08-3.32l-1.284 1.36c-.641-.6-1.323-.92-2.165-.92-1.523 0-2.686 1.2-2.686 2.92s1.163 2.92 2.686 2.92c.882 0 1.644-.4 2.245-.96l1.243 1.36c-.842.96-2.045 1.44-3.408 1.44-2.886 0-4.77-2.04-4.77-4.76 0-2.72 1.884-4.76 4.77-4.76 1.323-.04 2.566.44 3.368 1.4z" fill="#000"/><path fill="#47B972" d="M0 0h32v32H0z"/><path d="M23.773 7.017v4.743l-.084.04c-.714-.563-1.639-.925-2.815-.925-1.513 0-2.9.523-3.824 1.568l1.429 1.447c.714-.643 1.47-1.005 2.437-1.005 1.807.04 2.983 1.367 2.983 3.135 0 1.769-1.218 3.135-3.067 3.135-4.622 0-3.32-8.28-9.538-8.28-3.11 0-5.294 2.21-5.294 5.145v8.963h2.227V20.2l.084-.04c.714.563 1.639.925 2.815.925 1.513 0 2.9-.523 3.824-1.568l-1.43-1.447c-.714.643-1.47 1.005-2.437 1.005-1.807-.04-2.983-1.367-2.983-3.135 0-1.769 1.218-3.135 3.067-3.135 4.622 0 3.32 8.28 9.538 8.28 3.11 0 5.294-2.211 5.294-5.145V7.017h-2.227z" fill="#FFF"/></g></svg>