<svg width="95" height="22" xmlns="http://www.w3.org/2000/svg"><path d="M36.333 21.03l-.89-.098a18.795 18.795 0 0 1-4.53-1.035.34.34 0 0 1-.258-.388V0h2.96v6.6l.453-.162c1.44-.55 2.96-.792 4.497-.744 2.459.113 4.287 1.424 5.16 3.72a9.029 9.029 0 0 1 .566 3.268 13.416 13.416 0 0 1-.453 4.012c-.647 2.33-2.2 3.688-4.545 4.141-.356.065-.728.097-1.1.146-.049.016-.113.032-.162.048h-1.698zm-2.718-7.668v4.545a.305.305 0 0 0 .243.34c.89.324 1.811.534 2.766.599a6.323 6.323 0 0 0 1.99-.13c1.245-.323 1.99-1.18 2.313-2.378.469-1.747.566-3.559.242-5.338a3.787 3.787 0 0 0-.906-2.022c-.744-.841-1.747-1.149-2.83-1.165a9.51 9.51 0 0 0-3.608.663.3.3 0 0 0-.226.324c.032 1.537.016 3.057.016 4.562zm52.848 7.668l-.89-.098a18.795 18.795 0 0 1-4.529-1.035c-.178-.032-.29-.21-.275-.388V0h2.96v6.6c.21-.065.373-.13.534-.194a11.114 11.114 0 0 1 4.417-.712c2.507.113 4.335 1.456 5.192 3.802.486 1.294.583 2.653.534 4.011a12.44 12.44 0 0 1-.55 3.527c-.68 2.07-2.119 3.284-4.222 3.753-.437.097-.89.13-1.343.194l-.194.048h-1.634zm-2.701-7.668v4.594c0 .13.016.226.162.275a9.685 9.685 0 0 0 3.947.63c.792-.048 1.537-.258 2.151-.792.583-.501.906-1.165 1.084-1.876.42-1.65.485-3.381.21-5.08a4.132 4.132 0 0 0-.84-2.038c-.745-.906-1.764-1.23-2.896-1.246a9.382 9.382 0 0 0-3.64.68c-.146.032-.227.162-.21.307.016 1.505.016 3.025.032 4.546zM.615 1.213s4.659-.016 6.843 0c1.035-.016 2.07.13 3.057.42 1.796.567 2.863 1.861 3.073 3.738.114.97.081 1.957-.113 2.911-.372 1.715-1.44 2.783-3.057 3.349a8.792 8.792 0 0 1-2.831.453c-1.246.016-2.475 0-3.72 0h-.292v8.573H.615V1.213zm2.976 8.72c.065 0 .097.016.13.016 1.148 0 2.28.016 3.43-.017a8.24 8.24 0 0 0 1.423-.178c.97-.226 1.682-.744 1.94-1.747a5.86 5.86 0 0 0 .098-2.49c-.178-.988-.744-1.65-1.73-1.893a9.612 9.612 0 0 0-1.796-.26c-1.084-.048-2.168-.015-3.252-.015-.08 0-.162 0-.243.016v6.567zM20.82 21.03c-.357-.05-.729-.081-1.084-.146a6.478 6.478 0 0 1-2.427-.841c-1.165-.712-1.747-1.78-1.893-3.122-.032-.389-.048-.76-.048-1.149V6.034h2.96v8.784a6.97 6.97 0 0 0 .259 2.086c.34 1.117 1.132 1.764 2.28 1.893 1.408.146 2.816.016 4.174-.372.162-.016.275-.178.26-.34V6.001h2.96v13.686a.326.326 0 0 1-.243.372h-.032a27.9 27.9 0 0 1-5.29.906c-.065.016-.113.016-.178.032l-1.699.032zm50.13 0c-.356-.05-.728-.081-1.084-.146a6.396 6.396 0 0 1-2.394-.825c-1.18-.712-1.78-1.763-1.925-3.122a11.433 11.433 0 0 1-.048-1.052V6.018h2.96v8.945c-.016.68.097 1.343.291 1.99.356 1.1 1.149 1.715 2.265 1.844 1.375.146 2.75.016 4.076-.356a.36.36 0 0 0 .324-.42v-.017c-.016-3.898-.016-7.797 0-11.695v-.291h2.944c0 .08.016.161.016.242v13.475a.251.251 0 0 1-.21.308h-.016c-1.731.485-3.51.792-5.306.922-.065.016-.13.016-.194.048l-1.699.016zm-8.314-.373h-4.303a.317.317 0 0 1-.34-.21c-1.197-2.33-2.41-4.659-3.624-6.988l-4.95-9.544a.317.317 0 0 0-.145-.146v16.872h-2.588V1.213c.064 0 .145-.016.21-.016h4.06a.296.296 0 0 1 .307.194c2.88 5.533 5.76 11.081 8.639 16.613.032.065.08.13.145.162V1.23h2.605l-.016 19.428z" fill="#AEB5BD"/></svg>