<svg width="126" height="34" xmlns="http://www.w3.org/2000/svg"><g transform="translate(.376)" fill="#AEB5BD"><path d="M54.084 16.447l-2.056-.475c-1.028-.237-1.581-.87-1.581-1.819 0-1.186 1.027-2.055 2.45-2.055 1.977 0 2.53 1.423 2.61 1.897a.619.619 0 0 0 .316.317c.158.079.317.079.396 0l1.107-.396c.237-.079.395-.395.316-.632-.316-1.028-1.344-3.321-4.823-3.321-2.61 0-4.824 1.977-4.824 4.349 0 2.055 1.345 3.558 3.558 4.032l1.977.396c1.186.237 1.898.948 1.898 1.976 0 1.265-1.028 1.977-2.61 1.977-1.897 0-2.846-1.265-3.083-2.451 0-.158-.158-.316-.237-.395-.158-.08-.317-.08-.475-.08l-1.186.396c-.237.079-.395.316-.395.632.395 1.977 1.977 4.033 5.377 4.033 2.846 0 4.981-1.898 4.981-4.349.08-1.977-1.265-3.479-3.716-4.032zm9.963-1.977c-2.294 0-4.745 1.977-4.745 5.218 0 1.582.475 2.926 1.503 3.875.87.87 2.135 1.344 3.479 1.344 1.976 0 3.558-1.028 4.27-2.767a.504.504 0 0 0 0-.475.617.617 0 0 0-.317-.316l-.949-.316a.585.585 0 0 0-.711.316c-.396.949-1.186 1.502-2.372 1.502-1.345 0-2.372-.949-2.61-2.293v-.079h6.484c.316 0 .554-.237.554-.474v-.317c.158-3.241-1.66-5.218-4.586-5.218zm2.372 3.874v.08l-.08.078h-4.427s-.08 0-.08-.079v-.079c.238-.949 1.028-1.818 2.294-1.818 1.186 0 2.055.711 2.293 1.818zm12.651-3.637h-1.186a.54.54 0 0 0-.554.553c0 .08-.079.08-.079.08h-.079c-.632-.554-1.423-.791-2.53-.791-2.61 0-4.507 1.977-4.507 4.823 0 2.768 1.898 4.744 4.507 4.744.949 0 1.818-.316 2.451-.87h.08s.078 0 .078.08v.395c0 1.898-.87 2.846-2.688 2.846-1.186 0-2.056-.711-2.293-1.818 0-.158-.08-.237-.237-.316-.159-.08-.238-.08-.396-.08l-1.107.238c-.316.079-.474.316-.395.632.395 1.977 2.214 3.321 4.507 3.321 1.74 0 3.005-.553 3.874-1.502.712-.87 1.107-2.056 1.107-3.4V15.26c0-.237-.237-.553-.553-.553zm-4.112 7.433c-1.581 0-2.53-1.107-2.53-2.768 0-1.66.949-2.767 2.53-2.767 1.502 0 2.451 1.107 2.451 2.767s-.949 2.768-2.45 2.768zm17.949-7.67c-1.265 0-2.372.474-3.005 1.423l-.079.08s-.079 0-.079-.08c-.553-.87-1.581-1.423-2.767-1.423-.95 0-1.819.316-2.451.87-.08.079-.08 0-.159 0 0 0-.079 0-.079-.08a.54.54 0 0 0-.553-.553h-1.107a.54.54 0 0 0-.554.553v8.777a.54.54 0 0 0 .554.554h1.186a.54.54 0 0 0 .553-.554V18.66c0-1.265.791-2.134 1.977-2.134 1.582 0 1.74 1.186 1.74 1.897v5.614a.54.54 0 0 0 .553.554h1.186a.54.54 0 0 0 .554-.554V18.66c0-1.265.79-2.134 1.976-2.134 1.582 0 1.74 1.186 1.74 1.897v5.614a.54.54 0 0 0 .554.554h1.186a.54.54 0 0 0 .553-.554v-5.772c0-2.61-1.74-3.795-3.479-3.795zm10.042 0c-2.293 0-4.744 1.977-4.744 5.218 0 1.582.474 2.926 1.502 3.875.87.87 2.135 1.344 3.479 1.344 1.977 0 3.558-1.028 4.27-2.767a.504.504 0 0 0 0-.475.617.617 0 0 0-.316-.316l-.95-.316a.585.585 0 0 0-.71.316c-.396.949-1.187 1.502-2.373 1.502-1.344 0-2.372-.949-2.61-2.293v-.079h6.484c.317 0 .554-.237.554-.474v-.317c.158-3.241-1.66-5.218-4.586-5.218zm-2.214 4.032s-.08 0-.08-.079v-.079c.238-.949 1.029-1.818 2.294-1.818 1.265 0 2.135.711 2.372 1.818v.08l-.08.078h-4.506zm13.837-4.032a3.73 3.73 0 0 0-2.53.949c-.08.079-.08 0-.08 0s-.078 0-.078-.08v-.079a.54.54 0 0 0-.554-.553h-1.107a.54.54 0 0 0-.553.553v8.777a.54.54 0 0 0 .553.554h1.186a.54.54 0 0 0 .554-.554v-5.14c0-1.106.553-2.371 1.977-2.371 1.344 0 1.976.711 1.976 2.134v5.298a.54.54 0 0 0 .554.554h1.186a.54.54 0 0 0 .553-.554v-5.614c-.079-2.372-1.423-3.874-3.637-3.874zm9.093 2.372h1.344a.54.54 0 0 0 .554-.554V15.26a.54.54 0 0 0-.554-.553h-1.344c-.079 0-.079-.08-.079-.08v-2.292a.54.54 0 0 0-.553-.554h-1.028a.54.54 0 0 0-.554.554v1.186c0 .553-.237 1.265-1.265 1.265h-.158a.54.54 0 0 0-.554.554v1.027a.54.54 0 0 0 .554.554h1.107c.079 0 .079.079.079.079v4.823c0 1.819 1.107 2.926 2.846 2.926.475 0 .87-.08 1.028-.08.238-.078.396-.236.396-.553v-.949a.604.604 0 0 0-.158-.395.604.604 0 0 0-.396-.158h-.316c-.79 0-1.107-.316-1.107-1.107v-4.586c.079 0 .079-.08.158-.08zM22.14 23.01H1.74c-.95 0-1.74-.712-1.74-1.661 0-.949.79-1.74 1.74-1.74h20.4c.948 0 1.74.791 1.74 1.74s-.792 1.66-1.74 1.66zm-4.35 10.516a17.1 17.1 0 0 1-4.902-.712c-.87-.316-1.423-1.265-1.107-2.135.317-.87 1.266-1.423 2.135-1.107 1.265.395 2.53.554 3.875.554 5.772 0 10.832-3.717 12.493-9.252.237-.87 1.265-1.423 2.135-1.107.87.238 1.423 1.266 1.107 2.135-2.135 6.88-8.46 11.624-15.735 11.624zM33.842 14.39h-20.48c-.948 0-1.739-.79-1.739-1.739 0-.949.791-1.74 1.74-1.74h20.479c.949 0 1.74.791 1.74 1.74s-.791 1.74-1.74 1.74zm-30.205 0c-.158 0-.316 0-.474-.078-.87-.238-1.423-1.265-1.107-2.135C4.112 5.219 10.437.553 17.79.553c1.66 0 3.32.238 4.902.712.87.316 1.423 1.265 1.107 2.135-.316.87-1.265 1.423-2.135 1.107-1.265-.395-2.61-.554-3.874-.554-5.851 0-10.833 3.717-12.572 9.252-.159.711-.87 1.186-1.582 1.186z"/><circle cx="27.912" cy="6.167" r="1.74"/><circle cx="7.67" cy="27.833" r="1.74"/></g></svg>